<?xml version="1.0" encoding="utf-8"?>
<!-- Generator: Adobe Illustrator 16.0.0, SVG Export Plug-In . SVG Version: 6.00 Build 0)  -->
<!DOCTYPE svg PUBLIC "-//W3C//DTD SVG 1.1 Basic//EN" "http://www.w3.org/Graphics/SVG/1.1/DTD/svg11-basic.dtd">
<svg version="1.1" baseProfile="basic" id="Warstwa_1"
	 xmlns="http://www.w3.org/2000/svg" xmlns:xlink="http://www.w3.org/1999/xlink" x="0px" y="0px" width="800px" height="186px"
	 viewBox="0 0 800 186" xml:space="preserve">
<g>
	<path fill="#FFFFFF" d="M135.22,117.677l-0.503,14.013H62.721l0.755-10.069c7.048-9.845,17.313-25.788,30.795-47.829
		c14.488-23.774,21.733-37.004,21.733-39.689v-0.923c-12.251,0-29.621,0.7-52.108,2.098l0.419-12.838h68.471l-0.671,10.405
		c-6.377,9.007-16.195,24.81-29.453,47.409c-13.818,23.495-20.726,36.418-20.726,38.767v0.924
		C93.517,119.942,111.277,119.187,135.22,117.677z"/>
	<path fill="#FFFFFF" d="M207.887,108.949c0,16.336-10.434,24.502-31.298,24.502c-9.23,0-17.846-0.923-25.845-2.769l2.601-12.335
		c7.271,2.798,15.159,4.195,23.663,4.195c12.194,0,18.292-3.468,18.292-10.404c0-3.356-1.357-6.027-4.07-8.014
		c-2.714-1.985-7.203-4.209-13.468-6.671c-7.944-3.133-13.706-6.153-17.285-9.063c-5.259-4.308-7.888-9.509-7.888-15.607
		c0-6.377,2.404-11.845,7.216-16.405c4.81-4.559,12.138-6.838,21.984-6.838c9.621,0,17.341,0.812,23.16,2.433l-2.602,12.083
		c-6.042-2.405-13.035-3.608-20.978-3.608c-10.741,0-16.111,3.105-16.111,9.314c0,3.134,1.202,5.664,3.608,7.594
		c2.405,1.93,7.104,4.266,14.097,7.006c7.552,2.966,13.145,5.874,16.782,8.728C205.173,97.511,207.887,102.797,207.887,108.949z"/>
	<path fill="#FFFFFF" d="M285.504,118.18L285,131.689H223.83l0.671-13.006c2.964-2.854,10.544-11.691,22.74-26.516
		c13.258-16.167,19.887-25.229,19.887-27.188l-0.084-0.923c-17.957,0-32.194,0.364-42.71,1.091l0.503-13.174h58.234l-0.839,13.174
		c-4.644,5.091-11.999,13.985-22.068,26.684c-12.532,15.831-18.796,24.838-18.796,27.02v0.671
		C258.261,119.522,272.973,119.075,285.504,118.18z"/>
	<path fill="#FFFFFF" d="M370.002,51.974c0,3.581-4.225,14.993-12.67,34.236c-9.679,21.984-15.691,37.48-18.041,46.486
		c-3.86,14.601-7.44,23.886-10.74,27.858c-4.477,5.481-12.448,8.224-23.915,8.224l-0.671-11.748c6.992,0,12.81-2.378,17.453-7.132
		c4.643-4.756,6.965-10.714,6.965-17.873c0-6.21-5.147-20.978-15.439-44.305c-10.293-23.328-15.44-35.243-15.44-35.747h17.37
		c0,1.511,3.524,11.693,10.573,30.543c7.048,18.853,10.573,30.46,10.573,34.823h0.839c0-3.636,2.979-14.181,8.936-31.634
		c5.958-17.454,8.937-28.698,8.937-33.733H370.002z"/>
	<path fill="#FFFFFF" d="M501.658,51.974c0,3.356-4.797,16.518-14.391,39.48c-9.594,22.964-14.391,36.375-14.391,40.235h-11.412
		c0-2.125-2.824-10.265-8.475-24.418c-6.938-17.397-11.859-30.991-14.768-40.781h-0.672c-2.686,9.455-7.273,23.076-13.762,40.865
		c-5.146,14.097-7.719,22.209-7.719,24.334h-11.497c0-3.244-4.531-16.684-13.593-40.319c-9.063-23.634-13.594-36.766-13.594-39.396
		h14.936c0,2.91,3.258,13.539,9.775,31.886c6.518,18.349,9.775,29.033,9.775,32.054h0.924c0-4.586,3.369-15.649,10.111-33.187
		c6.74-17.537,10.111-27.788,10.111-30.753h14.266c0,2.574,3.494,13.287,10.488,32.138c6.992,18.853,10.488,29.452,10.488,31.802
		h0.84c0-3.411,3.033-13.831,9.104-31.256c6.07-17.425,9.105-28.32,9.105-32.684H501.658z"/>
	<path fill="#FFFFFF" d="M579.443,131.689l-13.174,0.504c-0.672-2.74-1.008-5.342-1.008-7.804h-0.838
		c-6.881,6.266-16.252,9.397-28.111,9.397c-6.434,0-11.971-1.888-16.613-5.664c-4.645-3.775-6.965-9.159-6.965-16.152
		c0-8.614,3.635-15.537,10.908-20.769c7.271-5.229,20.781-7.984,40.529-8.265c0.168-1.343,0.252-2.881,0.252-4.615
		c0-6.881-1.834-11.467-5.496-13.761c-3.666-2.293-9.217-3.44-16.656-3.44c-8.783,0-17.426,1.091-25.93,3.272l1.428-11.58
		c8.391-2.405,18.041-3.608,28.949-3.608c9.955,0,17.648,2.056,23.074,6.167c5.426,4.112,8.141,11.118,8.141,21.02
		c0,2.63-0.127,7.399-0.379,14.307c-0.252,6.909-0.377,11.51-0.377,13.803C577.178,114.685,577.934,123.747,579.443,131.689z
		 M564.592,115.411c-0.281-8.503-0.42-16.139-0.42-22.908c-10.518,0-18.518,0.784-23.998,2.35
		c-9.176,2.798-13.762,8.14-13.762,16.027c0,7.608,5.369,11.411,16.111,11.411C551.752,122.291,559.107,119.998,564.592,115.411z"/>
	<path fill="#FFFFFF" d="M661.76,118.852l-0.84,11.243c-4.531,2.573-10.602,3.86-18.209,3.86c-14.488,0-25.564-3.999-33.229-11.999
		c-7.664-7.999-11.494-17.649-11.494-28.949c0-11.971,4.027-22.264,12.082-30.879c8.055-8.614,18.713-12.922,31.971-12.922
		c6.656,0,12.082,0.671,16.277,2.014l-2.266,13.174c-5.873-2.182-11.83-3.272-17.873-3.272c-7.943,0-14.264,2.769-18.963,8.307
		s-7.049,12.475-7.049,20.81c0,9.063,2.797,16.614,8.391,22.656c5.594,6.041,13.51,9.063,23.748,9.063
		C648.502,121.956,654.318,120.921,661.76,118.852z"/>
	<path fill="#FFFFFF" d="M737.279,118.18l-0.504,13.51h-61.17l0.67-13.006c2.965-2.854,10.545-11.691,22.74-26.516
		c13.258-16.167,19.887-25.229,19.887-27.188l-0.084-0.923c-17.957,0-32.193,0.364-42.711,1.091l0.504-13.174h58.234l-0.84,13.174
		c-4.643,5.091-11.998,13.985-22.068,26.684c-12.531,15.831-18.795,24.838-18.795,27.02v0.671
		C710.035,119.522,724.748,119.075,737.279,118.18z"/>
</g>
</svg>
