<?xml version="1.0" encoding="utf-8"?>
<!-- Generator: Adobe Illustrator 16.0.0, SVG Export Plug-In . SVG Version: 6.00 Build 0)  -->
<!DOCTYPE svg PUBLIC "-//W3C//DTD SVG 1.1 Basic//EN" "http://www.w3.org/Graphics/SVG/1.1/DTD/svg11-basic.dtd">
<svg version="1.1" baseProfile="basic" id="Warstwa_1"
	 xmlns="http://www.w3.org/2000/svg" xmlns:xlink="http://www.w3.org/1999/xlink" x="0px" y="0px" width="800px" height="800px"
	 viewBox="0 0 800 800" xml:space="preserve">
<path fill="#FF7021" d="M400,140c69.448,0,134.74,27.044,183.848,76.152C632.955,265.26,660,330.551,660,400
	c0,69.448-27.045,134.74-76.152,183.848S469.448,660,400,660c-69.449,0-134.74-27.045-183.848-76.152
	C167.044,534.74,140,469.448,140,400c0-69.449,27.044-134.74,76.152-183.848C265.26,167.044,330.551,140,400,140 M400,0
	C179.086,0,0,179.086,0,400s179.086,400,400,400s400-179.086,400-400S620.914,0,400,0L400,0z"/>
<circle fill="#005385" cx="400" cy="400" r="153.083"/>
</svg>
