<?xml version="1.0" encoding="utf-8"?>
<!-- Generator: Adobe Illustrator 16.0.0, SVG Export Plug-In . SVG Version: 6.00 Build 0)  -->
<!DOCTYPE svg PUBLIC "-//W3C//DTD SVG 1.1 Basic//EN" "http://www.w3.org/Graphics/SVG/1.1/DTD/svg11-basic.dtd">
<svg version="1.1" baseProfile="basic" id="Warstwa_1"
	 xmlns="http://www.w3.org/2000/svg" xmlns:xlink="http://www.w3.org/1999/xlink" x="0px" y="0px" width="800px" height="800px"
	 viewBox="0 0 800 800" xml:space="preserve">
<radialGradient id="SVGID_1_" cx="71.9336" cy="718.9717" r="147.1458" gradientTransform="matrix(3.3333 0 0 -3.3333 91.668 2675)" gradientUnits="userSpaceOnUse">
	<stop  offset="0" style="stop-color:#250012;stop-opacity:0.85"/>
	<stop  offset="0.767" style="stop-color:#250012"/>
</radialGradient>
<path fill="url(#SVGID_1_)" d="M145.104,125.604l92.995-68.997L409.09,29.609l157.492,29.999l106.495,79.496l85.495,112.494
	l22.499,119.994l-23.999,188.99l-79.496,83.996L566.582,746.573l-159.38,29.998l-170.604-29.998l-107.995-70.497L49.108,553.083
	L33.334,400l14.274-142.402L145.104,125.604z"/>
<path fill="#FF408C" d="M400,60c45.926,0,90.446,8.981,132.325,26.694c40.479,17.122,76.847,41.645,108.091,72.89
	c31.245,31.244,55.769,67.611,72.89,108.091C731.019,309.553,740,354.074,740,400c0,45.926-8.981,90.446-26.694,132.325
	c-17.121,40.479-41.645,76.847-72.89,108.091c-31.244,31.245-67.611,55.769-108.091,72.89C490.446,731.019,445.926,740,400,740
	c-45.926,0-90.447-8.981-132.325-26.694c-40.479-17.121-76.847-41.645-108.091-72.89c-31.245-31.244-55.768-67.611-72.89-108.091
	C68.981,490.446,60,445.926,60,400c0-45.926,8.981-90.447,26.694-132.325c17.122-40.479,41.645-76.847,72.89-108.091
	c31.244-31.245,67.611-55.768,108.091-72.89C309.553,68.981,354.074,60,400,60 M400,0C179.086,0,0,179.086,0,400
	s179.086,400,400,400s400-179.086,400-400S620.914,0,400,0L400,0z"/>
<path fill="#FF408C" d="M299.296,579.468c0,3.301-0.55,4.4-4.4,4.4h-51.2c-3.3,0-4.4-1.65-4.4-4.4V221.602c0-3.3,1.65-4.4,4.4-4.4
	h51.75c2.75,0,3.85,1.1,3.85,3.85V579.468z M358.263,450.378c0-79.753,52.616-141.9,136.767-141.9c7.149,0,11,0,17.6,0.547v-88.523
	c0-2.2,1.647-3.3,3.3-3.3h54.234c2.746,0,3.3,1.1,3.3,2.75v311.823c0,9.351,0,20.9,1.646,33.551c0,2.199-0.7,2.753-2.9,3.853
	c-28.6,13.75-58.85,19.801-87.446,19.801C411.063,588.979,358.263,543.325,358.263,450.378L358.263,450.378z M512.629,362.928
	c-4.946-2.2-11.55-3.3-19.8-3.3c-42.9,0-72.967,33-72.967,88c0,62.7,30.617,88,69.113,88c8.25,0,17.054-1.1,23.653-3.85V362.928
	L512.629,362.928z"/>
</svg>
