<?xml version="1.0" encoding="utf-8"?>
<!-- Generator: Adobe Illustrator 16.0.0, SVG Export Plug-In . SVG Version: 6.00 Build 0)  -->
<!DOCTYPE svg PUBLIC "-//W3C//DTD SVG 1.1 Basic//EN" "http://www.w3.org/Graphics/SVG/1.1/DTD/svg11-basic.dtd">
<svg version="1.1" baseProfile="basic" id="Warstwa_1"
	 xmlns="http://www.w3.org/2000/svg" xmlns:xlink="http://www.w3.org/1999/xlink" x="0px" y="0px" width="800px" height="800px"
	 viewBox="0 0 800 800" xml:space="preserve">
<path fill="#6D0000" d="M139.098,111.604l92.995-68.997l170.991-26.999l157.492,29.999l106.496,79.496l85.494,112.494l22.5,119.994
	l-24,188.99l-79.496,83.996L560.576,732.573l-159.379,29.998l-170.604-29.998l-107.995-70.497L43.103,539.083L27.329,386
	l14.274-142.402L139.098,111.604z"/>
<path fill="#FF3131" d="M400,60c45.926,0,90.446,8.981,132.325,26.694c40.479,17.122,76.847,41.645,108.091,72.89
	c31.245,31.244,55.769,67.611,72.89,108.091C731.019,309.553,740,354.074,740,400c0,45.926-8.981,90.446-26.694,132.325
	c-17.121,40.479-41.645,76.847-72.89,108.091c-31.244,31.245-67.611,55.769-108.091,72.89C490.446,731.019,445.926,740,400,740
	c-45.926,0-90.447-8.981-132.325-26.694c-40.479-17.121-76.847-41.645-108.091-72.89c-31.245-31.244-55.768-67.611-72.89-108.091
	C68.981,490.446,60,445.926,60,400c0-45.926,8.981-90.447,26.694-132.325c17.122-40.479,41.645-76.847,72.89-108.091
	c31.244-31.245,67.611-55.768,108.091-72.89C309.553,68.981,354.074,60,400,60 M400,0C179.086,0,0,179.086,0,400
	s179.086,400,400,400s400-179.086,400-400S620.914,0,400,0L400,0z"/>
<g>
	<path fill="#FF3131" d="M294.092,536.999H204v-96.898h90.092V536.999z"/>
	<path fill="#FF3131" d="M445.046,536.999h-90.092v-96.898h90.092V536.999z"/>
	<path fill="#FF3131" d="M596,536.999h-90.092v-96.898H596V536.999z"/>
</g>
</svg>
