<?xml version="1.0" encoding="utf-8"?>
<!-- Generator: Adobe Illustrator 16.0.0, SVG Export Plug-In . SVG Version: 6.00 Build 0)  -->
<!DOCTYPE svg PUBLIC "-//W3C//DTD SVG 1.1 Basic//EN" "http://www.w3.org/Graphics/SVG/1.1/DTD/svg11-basic.dtd">
<svg version="1.1" baseProfile="basic" id="Warstwa_1"
	 xmlns="http://www.w3.org/2000/svg" xmlns:xlink="http://www.w3.org/1999/xlink" x="0px" y="0px" width="800px" height="800px"
	 viewBox="0 0 800 800" xml:space="preserve">
<g>
	<path fill="#001D26" d="M400,770c-98.831,0-191.746-38.486-261.629-108.37S30,498.83,30,400
		c0-98.831,38.487-191.746,108.371-261.629S301.169,30,400,30c98.83,0,191.746,38.487,261.63,108.371S770,301.169,770,400
		c0,98.83-38.486,191.746-108.37,261.63S498.83,770,400,770z"/>
	<path fill="#00C8FF" d="M400,60c45.926,0,90.446,8.981,132.325,26.694c40.479,17.122,76.847,41.645,108.091,72.89
		c31.245,31.244,55.769,67.611,72.89,108.091C731.019,309.553,740,354.074,740,400c0,45.926-8.981,90.446-26.694,132.325
		c-17.121,40.479-41.645,76.847-72.89,108.091c-31.244,31.245-67.611,55.769-108.091,72.89C490.446,731.019,445.926,740,400,740
		c-45.926,0-90.447-8.981-132.325-26.694c-40.479-17.121-76.847-41.645-108.091-72.89c-31.245-31.244-55.768-67.611-72.89-108.091
		C68.981,490.446,60,445.926,60,400c0-45.926,8.981-90.447,26.694-132.325c17.122-40.479,41.645-76.847,72.89-108.091
		c31.244-31.245,67.611-55.768,108.091-72.89C309.553,68.981,354.074,60,400,60 M400,0C179.086,0,0,179.086,0,400
		s179.086,400,400,400s400-179.086,400-400S620.914,0,400,0L400,0z"/>
</g>
<path fill="#00C8FF" d="M189.667,219c0-2.333,4.666-4,7.332-4c21.334-1,53-1.667,86-1.667c92.334,0,128.334,50.667,128.334,115.667
	c0,84.667-61.333,121-136.666,121c-12.668,0-17-0.666-26-0.666v128c0,2.666-1,4-4,4h-51c-2.668,0-4-1-4-4V219L189.667,219z
	 M248.999,396c7.668,0.667,13.668,0.667,27,0.667C315,396.667,351.666,383,351.666,330c0-42.333-26.333-63.667-70.667-63.667
	c-13.332,0-26,0.667-32,1V396L248.999,396z M535.666,356.334c-26.333,0-35.333,13.333-35.333,24.333c0,12,6,20.333,41.333,38.667
	c52.334,25.333,68.667,49.667,68.667,85.333c0,53.334-40.667,82-95.667,82c-29,0-54-6-68.333-14.332
	c-2.333-1-2.667-2.668-2.667-5.334v-49c0-3.334,1.667-4.334,4-2.666c21,13.666,45,19.666,67,19.666c26.334,0,37.334-11,37.334-26
	c0-12-7.667-22.666-41.334-40c-47.333-22.666-67-45.667-67-84c0-43,33.667-78.667,92-78.667c28.667,0,48.667,4.333,59.667,9.333
	c2.667,1.667,3.333,4.333,3.333,6.667V368c0,2.667-1.666,4.333-5,3.333C579,362,557.333,356.334,535.666,356.334L535.666,356.334z"
	/>
</svg>
