<?xml version="1.0" encoding="utf-8"?>
<!-- Generator: Adobe Illustrator 16.0.0, SVG Export Plug-In . SVG Version: 6.00 Build 0)  -->
<!DOCTYPE svg PUBLIC "-//W3C//DTD SVG 1.1 Basic//EN" "http://www.w3.org/Graphics/SVG/1.1/DTD/svg11-basic.dtd">
<svg version="1.1" baseProfile="basic" id="Warstwa_1"
	 xmlns="http://www.w3.org/2000/svg" xmlns:xlink="http://www.w3.org/1999/xlink" x="0px" y="0px" width="800px" height="800px"
	 viewBox="0 0 800 800" xml:space="preserve">
<g>
	<path fill="#001D26" d="M400,785c-51.981,0-102.4-10.177-149.855-30.249c-45.844-19.391-87.019-47.152-122.381-82.515
		c-35.362-35.362-63.125-76.538-82.515-122.382C25.177,502.399,15,451.981,15,400s10.177-102.4,30.249-149.855
		c19.39-45.844,47.152-87.019,82.515-122.381c35.363-35.362,76.538-63.125,122.381-82.515C297.6,25.177,348.019,15,400,15
		s102.399,10.177,149.854,30.249c45.844,19.39,87.02,47.152,122.382,82.515c35.362,35.363,63.124,76.538,82.515,122.381
		C774.823,297.6,785,348.019,785,400s-10.177,102.399-30.249,149.854c-19.391,45.844-47.152,87.02-82.515,122.382
		s-76.538,63.124-122.382,82.515C502.399,774.823,451.981,785,400,785z"/>
	<path fill="#00C8FF" d="M400,30c49.963,0,98.415,9.778,144.012,29.064c44.056,18.634,83.628,45.316,117.618,79.306
		c33.989,33.99,60.672,73.563,79.306,117.619C760.222,301.584,770,350.037,770,400s-9.778,98.415-29.064,144.012
		c-18.634,44.056-45.316,83.628-79.306,117.618c-33.99,33.989-73.563,60.672-117.618,79.306C498.415,760.222,449.963,770,400,770
		s-98.416-9.778-144.011-29.064c-44.056-18.634-83.628-45.316-117.619-79.306c-33.99-33.99-60.672-73.563-79.306-117.618
		C39.778,498.415,30,449.963,30,400s9.778-98.416,29.064-144.011c18.634-44.056,45.316-83.628,79.306-117.619
		c33.99-33.99,73.563-60.672,117.619-79.306C301.584,39.778,350.037,30,400,30 M400,0C179.086,0,0,179.086,0,400
		s179.086,400,400,400s400-179.086,400-400S620.914,0,400,0L400,0z"/>
</g>
<path fill="#00C8FF" d="M189.667,219c0-2.333,4.666-4,7.332-4c21.334-1,53-1.667,86-1.667c92.334,0,128.334,50.667,128.334,115.667
	c0,84.667-61.333,121-136.666,121c-12.668,0-17-0.666-26-0.666v128c0,2.666-1,4-4,4h-51c-2.668,0-4-1-4-4V219L189.667,219z
	 M248.999,396c7.668,0.667,13.668,0.667,27,0.667C315,396.667,351.666,383,351.666,330c0-42.333-26.333-63.667-70.667-63.667
	c-13.332,0-26,0.667-32,1V396L248.999,396z M535.666,356.334c-26.333,0-35.333,13.333-35.333,24.333c0,12,6,20.333,41.333,38.667
	c52.334,25.333,68.667,49.667,68.667,85.333c0,53.334-40.667,82-95.667,82c-29,0-54-6-68.333-14.332
	c-2.333-1-2.667-2.668-2.667-5.334v-49c0-3.334,1.667-4.334,4-2.666c21,13.666,45,19.666,67,19.666c26.334,0,37.334-11,37.334-26
	c0-12-7.667-22.666-41.334-40c-47.333-22.666-67-45.667-67-84c0-43,33.667-78.667,92-78.667c28.667,0,48.667,4.333,59.667,9.333
	c2.667,1.667,3.333,4.333,3.333,6.667V368c0,2.667-1.666,4.333-5,3.333C579,362,557.333,356.334,535.666,356.334L535.666,356.334z"
	/>
</svg>
