<?xml version="1.0" encoding="utf-8"?>
<!-- Generator: Adobe Illustrator 16.0.0, SVG Export Plug-In . SVG Version: 6.00 Build 0)  -->
<!DOCTYPE svg PUBLIC "-//W3C//DTD SVG 1.1 Basic//EN" "http://www.w3.org/Graphics/SVG/1.1/DTD/svg11-basic.dtd">
<svg version="1.1" baseProfile="basic" id="Warstwa_1"
	 xmlns="http://www.w3.org/2000/svg" xmlns:xlink="http://www.w3.org/1999/xlink" x="0px" y="0px" width="800px" height="800px"
	 viewBox="0 0 800 800" xml:space="preserve">
<path fill="#003300" d="M139.098,111.604l92.995-68.997l170.991-26.999l157.492,29.999l106.496,79.496l85.494,112.494l22.5,119.994
	l-24,188.99l-79.496,83.996L560.576,732.573l-159.379,29.998l-170.604-29.998l-107.995-70.497L43.103,539.083L27.329,386
	l14.274-142.402L139.098,111.604z"/>
<path fill="#00C100" d="M400,60c45.926,0,90.446,8.981,132.325,26.694c40.479,17.122,76.847,41.645,108.091,72.89
	c31.245,31.244,55.769,67.611,72.89,108.091C731.019,309.553,740,354.074,740,400c0,45.926-8.981,90.446-26.694,132.325
	c-17.121,40.479-41.645,76.847-72.89,108.091c-31.244,31.245-67.611,55.769-108.091,72.89C490.446,731.019,445.926,740,400,740
	c-45.926,0-90.447-8.981-132.325-26.694c-40.479-17.121-76.847-41.645-108.091-72.89c-31.245-31.244-55.768-67.611-72.89-108.091
	C68.981,490.446,60,445.926,60,400c0-45.926,8.981-90.447,26.694-132.325c17.122-40.479,41.645-76.847,72.89-108.091
	c31.244-31.245,67.611-55.768,108.091-72.89C309.553,68.981,354.074,60,400,60 M400,0C179.086,0,0,179.086,0,400
	s179.086,400,400,400s400-179.086,400-400S620.914,0,400,0L400,0z"/>
<path fill="none" stroke="#00C100" stroke-width="40" stroke-miterlimit="10" d="M674.577,515.924
	c0,20.522-14.732,37.159-32.906,37.159H181.009c-18.173,0-32.906-16.637-32.906-37.159V263.259
	c0-20.522,14.733-37.159,32.906-37.159h460.662c18.174,0,32.906,16.637,32.906,37.159V515.924z"/>
<line fill="none" stroke="#00C100" stroke-width="20" stroke-miterlimit="10" x1="293.596" y1="290.596" x2="293.596" y2="488.586"/>
<rect x="476.236" y="120.777" transform="matrix(0.7751 0.6319 -0.6319 0.7751 258.0811 -284.4832)" fill="#003300" width="104.786" height="198.97"/>
<path fill="#00C100" d="M437.227,322.208c0,0-0.005-0.073-0.015-0.217c-0.015-0.147-0.019-0.353-0.019-0.62
	c-0.009-0.541-0.015-1.338,0.086-2.291c0.16-1.937,0.673-4.554,1.798-7.501c1.147-2.93,2.96-6.147,5.708-9.296
	c2.697-3.191,5.739-6.792,9.058-10.72c3.313-3.933,6.912-8.185,10.757-12.651c3.842-4.469,7.854-9.213,12.078-14.062
	c4.22-4.852,8.58-9.866,13.011-14.96c4.47-5.063,8.97-10.239,13.542-15.357c4.569-5.12,9.116-10.259,13.659-15.263
	c4.517-5.025,8.992-9.945,13.346-14.689c4.33-4.763,8.591-9.306,12.595-13.644c4.049-4.302,7.876-8.369,11.409-12.123
	c3.536-3.752,6.838-7.142,9.749-10.16c2.914-3.016,5.445-5.652,7.578-7.784c4.226-4.296,6.688-6.713,6.687-6.713l9.494,7.684
	c-0.001,0-1.852,2.911-5.173,7.939c-1.641,2.53-3.691,5.555-6.033,9.033c-2.345,3.476-4.973,7.413-7.905,11.652
	c-2.936,4.238-6.116,8.829-9.479,13.685c-3.408,4.82-6.964,9.934-10.72,15.161c-3.732,5.247-7.612,10.65-11.586,16.114
	c-3.947,5.486-8.026,11.003-12.081,16.539c-4.053,5.539-8.178,11.019-12.198,16.445c-4.06,5.395-8.055,10.705-11.921,15.843
	c-3.862,5.141-7.666,10.054-11.236,14.743c-3.567,4.691-6.977,9.097-10.132,13.157c-3.15,4.064-6.038,7.79-8.597,11.092
	c-2.508,3.345-5.277,5.788-7.903,7.521c-2.648,1.715-5.101,2.761-6.962,3.322c-0.91,0.297-1.691,0.457-2.222,0.561
	c-0.262,0.055-0.463,0.095-0.61,0.111c-0.143,0.021-0.215,0.031-0.215,0.031L437.227,322.208z"/>
<path fill="#00C100" d="M449.106,338.708c0,0,0.018,1.059-0.385,2.561c-0.397,1.505-1.197,3.469-2.649,5.426
	c-0.726,0.98-1.602,1.968-2.644,2.919c-1.06,0.938-2.177,1.926-3.332,2.949c-1.179,1.003-2.397,2.041-3.635,3.095
	c-1.269,1.03-2.557,2.076-3.844,3.122c-1.316,1.023-2.611,2.064-3.94,3.044c-1.307,0.998-2.626,1.954-3.908,2.875
	c-2.576,1.831-5.033,3.497-7.208,4.869c-1.092,0.684-2.089,1.313-3.01,1.84c-0.916,0.531-1.697,1.008-2.372,1.376
	c-1.342,0.741-2.14,1.14-2.139,1.141l-2.785-2.254c0.001,0,0.225-0.863,0.67-2.33c0.22-0.736,0.523-1.6,0.852-2.607
	c0.324-1.011,0.731-2.117,1.172-3.327c0.889-2.414,2.008-5.164,3.261-8.065c0.634-1.445,1.294-2.935,1.997-4.421
	c0.683-1.504,1.431-2.987,2.156-4.488c0.755-1.478,1.51-2.955,2.253-4.41c0.773-1.431,1.534-2.838,2.27-4.201
	c0.76-1.343,1.494-2.642,2.19-3.873c0.713-1.218,1.497-2.281,2.304-3.194c1.611-1.829,3.366-3.02,4.755-3.723
	c1.386-0.706,2.425-0.909,2.425-0.909L449.106,338.708z"/>
<circle fill="none" stroke="#00C100" stroke-width="12" stroke-miterlimit="10" cx="234.994" cy="384.14" r="31.533"/>
<circle fill="#00C100" cx="234.994" cy="384.14" r="16.535"/>
<path fill="#00C100" d="M259.494,319.5c0,4.971-4.029,9-9,9h-31c-4.971,0-9-4.029-9-9l0,0c0-4.971,4.029-9,9-9h31
	C255.465,310.5,259.494,314.529,259.494,319.5L259.494,319.5z"/>
<path fill="#00C100" d="M259.494,290.596c0,4.971-4.029,9-9,9h-31c-4.971,0-9-4.029-9-9l0,0c0-4.971,4.029-9,9-9h31
	C255.465,281.596,259.494,285.625,259.494,290.596L259.494,290.596z"/>
<path fill="#00C100" d="M259.494,479.586c0,4.971-4.029,9-9,9h-31c-4.971,0-9-4.029-9-9l0,0c0-4.971,4.029-9,9-9h31
	C255.465,470.586,259.494,474.615,259.494,479.586L259.494,479.586z"/>
<path fill="#00C100" d="M259.494,450.682c0,4.971-4.029,9-9,9h-31c-4.971,0-9-4.029-9-9l0,0c0-4.971,4.029-9,9-9h31
	C255.465,441.682,259.494,445.711,259.494,450.682L259.494,450.682z"/>
</svg>
